<svg width="24" height="28" viewBox="0 0 24 28" fill="none" xmlns="http://www.w3.org/2000/svg">
<path d="M23 16C22.7348 16 22.4804 16.1054 22.2929 16.2929C22.1054 16.4804 22 16.7348 22 17V26H2V17C2 16.7348 1.89464 16.4804 1.70711 16.2929C1.51957 16.1054 1.26522 16 1 16C0.734784 16 0.48043 16.1054 0.292893 16.2929C0.105357 16.4804 0 16.7348 0 17V27C0 27.2652 0.105357 27.5196 0.292893 27.7071C0.48043 27.8946 0.734784 28 1 28H23C23.2652 28 23.5196 27.8946 23.7071 27.7071C23.8946 27.5196 24 27.2652 24 27V17C24 16.7348 23.8946 16.4804 23.7071 16.2929C23.5196 16.1054 23.2652 16 23 16Z" fill="#38AECC"/>
<path d="M5.75 9.65999L11 3.65999V20C11 20.2652 11.1054 20.5196 11.2929 20.7071C11.4804 20.8946 11.7348 21 12 21C12.2652 21 12.5196 20.8946 12.7071 20.7071C12.8946 20.5196 13 20.2652 13 20V3.65999L18.25 9.65999C18.3437 9.76666 18.4591 9.85215 18.5884 9.91077C18.7177 9.9694 18.858 9.99981 19 9.99999C19.1922 9.99975 19.3802 9.94413 19.5416 9.83981C19.703 9.73548 19.8309 9.58686 19.91 9.41173C19.9892 9.23659 20.0161 9.04237 19.9878 8.8523C19.9594 8.66223 19.8768 8.48437 19.75 8.33999L12.75 0.33999C12.6565 0.240079 12.5434 0.160433 12.4178 0.105983C12.2923 0.0515326 12.1569 0.0234375 12.02 0.0234375C11.8831 0.0234375 11.7477 0.0515326 11.6222 0.105983C11.4966 0.160433 11.3835 0.240079 11.29 0.33999L4.29 8.33999C4.19648 8.43735 4.12365 8.55263 4.07589 8.67889C4.02813 8.80515 4.00642 8.93977 4.01208 9.07464C4.01774 9.20952 4.05065 9.34185 4.10882 9.46366C4.167 9.58547 4.24923 9.69425 4.35057 9.78343C4.45191 9.87261 4.57026 9.94034 4.69848 9.98256C4.8267 10.0248 4.96214 10.0406 5.09664 10.0291C5.23114 10.0175 5.36191 9.97888 5.48107 9.91545C5.60023 9.85202 5.70532 9.76512 5.79 9.65999H5.75Z" fill="#38AECC"/>
</svg>
