<svg width="133" height="144" viewBox="0 0 133 144" fill="none" xmlns="http://www.w3.org/2000/svg">
<path d="M68.4757 61.5857H99.7219V68.4286C99.7219 72.5343 102.381 75.2714 106.37 75.2714C110.359 75.2714 113.018 72.5343 113.018 68.4286V47.9L66.4813 0H13.9611C6.64813 0 0 6.84286 0 14.37V108.801C0 116.329 6.64813 123.171 13.9611 123.171H59.8332C63.822 123.171 66.4813 120.434 66.4813 116.329C66.4813 112.223 63.822 109.486 59.8332 109.486H13.9611L13.2963 108.801V14.37L13.9611 13.6857H53.185V45.8471C53.185 54.7429 59.8332 61.5857 68.4757 61.5857ZM66.4813 45.8471V19.8443L93.7386 47.9H68.4757C67.1461 47.9 66.4813 47.2157 66.4813 45.8471Z" fill="#0090C1"/>
<path d="M126.314 109.486H113.018V95.8C113.018 91.6943 110.359 88.9572 106.37 88.9572C102.381 88.9572 99.7217 91.6943 99.7217 95.8V109.486H86.4255C82.4366 109.486 79.7773 112.223 79.7773 116.329C79.7773 120.434 82.4366 123.171 86.4255 123.171H99.7217V136.857C99.7217 140.963 102.381 143.7 106.37 143.7C110.359 143.7 113.018 140.963 113.018 136.857V123.171H126.314C130.303 123.171 132.962 120.434 132.962 116.329C132.962 112.223 130.303 109.486 126.314 109.486Z" fill="#0090C1"/>
</svg>
