<svg width="79" height="78" viewBox="0 0 79 78" fill="none" xmlns="http://www.w3.org/2000/svg">
<path d="M77.2 11L67.9 1.69999C66.7 0.499988 64.8 0.499988 63.7 1.69999L23.2 42.1C23 42.3 22.8 42.6 22.6 42.9L14.4 60.4C13.9 61.5 14.1 62.9 15 63.8C15.6 64.4 16.3 64.7 17.1 64.7C17.5 64.7 18 64.6 18.4 64.4L35.9 56.2C36.2 56.1 36.5 55.9 36.7 55.6L77.2 15.1C77.8 14.5 78.1 13.8 78.1 13C78.1 12.2 77.8 11.5 77.2 11V11ZM32.8 51.1L23.3 55.6L27.8 46.1L56.7 17.2L61.8 22.3L32.8 51.1ZM65.9 18L60.8 12.9L65.7 7.99999L70.8 13.1L65.9 18Z" fill="#38AECC"/>
<path d="M68.8 35.2001C67.1 35.2001 65.8 36.5001 65.8 38.2001V39.8V71.3H6.6V11.8H13H15.8H43.2C44.9 11.8 46.2 10.5 46.2 8.80005C46.2 7.10005 44.9 5.80005 43.2 5.80005H15.8H13H6.6C3.3 5.80005 0.599998 8.50005 0.599998 11.8V71.3C0.599998 74.6 3.3 77.3 6.6 77.3H65.8C69.1 77.3 71.8 74.6 71.8 71.3V59.4001V39.8V38.2001C71.8 36.6001 70.4 35.2001 68.8 35.2001V35.2001Z" fill="#38AECC"/>
</svg>
